<svg preserveAspectRatio="none" width="100%" height="100%" overflow="visible" style="display: block;" viewBox="0 0 28 28" fill="none" xmlns="http://www.w3.org/2000/svg">
<g id="ico">
<g id="ico_2">
<path d="M9.1875 9.625C9.1875 8.6585 9.971 7.875 10.9375 7.875C11.904 7.875 12.6875 8.6585 12.6875 9.625V18.375C12.6875 19.3415 11.904 20.125 10.9375 20.125C9.971 20.125 9.1875 19.3415 9.1875 18.375V9.625Z" fill="var(--fill-0, #609DFF)"/>
<path d="M3.0625 13.125C3.0625 12.1585 3.846 11.375 4.8125 11.375C5.779 11.375 6.5625 12.1585 6.5625 13.125V14.875C6.5625 15.8415 5.779 16.625 4.8125 16.625C3.846 16.625 3.0625 15.8415 3.0625 14.875V13.125Z" fill="var(--fill-0, #609DFF)"/>
<path d="M21.4375 12.25C21.4375 11.2835 22.221 10.5 23.1875 10.5C24.154 10.5 24.9375 11.2835 24.9375 12.25V15.75C24.9375 16.7165 24.154 17.5 23.1875 17.5C22.221 17.5 21.4375 16.7165 21.4375 15.75V12.25Z" fill="var(--fill-0, #609DFF)"/>
<path d="M15.3125 6.125C15.3125 5.1585 16.096 4.375 17.0625 4.375C18.029 4.375 18.8125 5.1585 18.8125 6.125V21.875C18.8125 22.8415 18.029 23.625 17.0625 23.625C16.096 23.625 15.3125 22.8415 15.3125 21.875V6.125Z" fill="var(--fill-0, #609DFF)"/>
</g>
</g>
</svg>
