<svg preserveAspectRatio="none" width="100%" height="100%" overflow="visible" style="display: block;" viewBox="0 0 28 28" fill="none" xmlns="http://www.w3.org/2000/svg">
<g id="ico">
<path id="ico_2" d="M18.857 21.5793C19.6087 22.331 20.8276 22.331 21.5794 21.5793C22.3311 20.8275 22.3311 19.6087 21.5793 18.8569L16.7224 14L21.5793 9.14306C22.3311 8.3913 22.3311 7.17246 21.5793 6.4207C20.8276 5.66894 19.6087 5.66894 18.857 6.4207L14.0001 11.2776L9.14311 6.42067C8.39135 5.66891 7.17251 5.66891 6.42075 6.42067C5.66899 7.17243 5.66899 8.39127 6.42075 9.14303L11.2777 14L6.42072 18.8569C5.66896 19.6087 5.66896 20.8275 6.42072 21.5793C7.17248 22.3311 8.39132 22.3311 9.14308 21.5793L14.0001 16.7223L18.857 21.5793Z" fill="var(--fill-0, #FF7A60)"/>
</g>
</svg>
