<svg preserveAspectRatio="none" width="100%" height="100%" overflow="visible" style="display: block;" viewBox="0 0 18 18" fill="none" xmlns="http://www.w3.org/2000/svg">
<g id="ico" opacity="0.6">
<path id="ico_2" d="M8.27847 3.55573L12.6351 7.82172C12.9977 8.18024 13.1789 8.573 13.1789 9C13.1749 9.22559 13.1286 9.43103 13.0399 9.61633C12.9554 9.80164 12.8204 9.98895 12.6351 10.1783L8.27847 14.4322C8.02469 14.69 7.71048 14.8189 7.33585 14.8189C7.08206 14.8189 6.85043 14.7565 6.64096 14.6316C6.43149 14.5067 6.2623 14.3395 6.13339 14.1301C6.00851 13.9246 5.94608 13.697 5.94608 13.4473C5.94608 13.0605 6.09915 12.7202 6.4053 12.4261L10.1516 8.8429V9.18127L6.4053 5.57391C6.09915 5.27179 5.94608 4.92938 5.94608 4.54669C5.94608 4.29694 6.00851 4.06732 6.13339 3.85785C6.2623 3.6524 6.43149 3.48724 6.64096 3.36237C6.85043 3.23749 7.08206 3.17505 7.33585 3.17505C7.52115 3.17505 7.69034 3.20526 7.84341 3.26569C8.00052 3.33014 8.14554 3.42682 8.27847 3.55573Z" fill="var(--fill-0, white)"/>
</g>
</svg>
