<svg width="24" height="24" viewBox="0 0 24 24" fill="none" xmlns="http://www.w3.org/2000/svg">
  <path fill-rule="evenodd" clip-rule="evenodd" d="M21.75 12C21.75 17.3848 17.3848 21.75 12 21.75C6.61522 21.75 2.25 17.3848 2.25 12C2.25 6.61522 6.61522 2.25 12 2.25C17.3848 2.25 21.75 6.61522 21.75 12ZM17.25 16.875C17.25 17.2508 17.0585 17.5961 16.7676 17.834C15.4689 18.8966 13.8089 19.5341 12 19.5341C10.1911 19.5341 8.53106 18.8966 7.23235 17.834C6.94154 17.5961 6.75 17.2508 6.75 16.875C6.75 15.011 8.26108 13.5 10.125 13.5H13.875C15.7389 13.5 17.25 15.011 17.25 16.875ZM12 12C13.6568 12 15 10.6569 15 9C15 7.34315 13.6568 6 12 6C10.3432 6 9 7.34315 9 9C9 10.6569 10.3432 12 12 12Z" fill="white"/>
</svg>
