<svg width="16" height="16" viewBox="0 0 16 16" fill="none" xmlns="http://www.w3.org/2000/svg">
  <path d="M7.35864 3.16064L11.2312 6.95264C11.5535 7.27132 11.7146 7.62044 11.7146 8C11.711 8.20052 11.6698 8.38314 11.5911 8.54785C11.5159 8.71257 11.3959 8.87907 11.2312 9.04736L7.35864 12.8286C7.13306 13.0578 6.85376 13.1724 6.52075 13.1724C6.29517 13.1724 6.08927 13.1169 5.90308 13.0059C5.71688 12.8949 5.56649 12.7463 5.4519 12.5601C5.3409 12.3774 5.2854 12.1751 5.2854 11.9531C5.2854 11.6094 5.42147 11.3068 5.6936 11.0454L9.02368 7.86035V8.16113L5.6936 4.95459C5.42147 4.68604 5.2854 4.38167 5.2854 4.0415C5.2854 3.8195 5.3409 3.6154 5.4519 3.4292C5.56649 3.24658 5.71688 3.09977 5.90308 2.98877C6.08927 2.87777 6.29517 2.82227 6.52075 2.82227C6.68547 2.82227 6.83586 2.84912 6.97192 2.90283C7.11157 2.96012 7.24048 3.04606 7.35864 3.16064Z" fill="white" fill-opacity="0.48"/>
</svg>
