<svg width="24" height="24" viewBox="0 0 24 24" fill="none" xmlns="http://www.w3.org/2000/svg">
  <path d="M12 2.25C6.61627 2.25 2.25 6.61627 2.25 12C2.25 17.3837 6.61627 21.75 12 21.75C17.3837 21.75 21.75 17.3837 21.75 12C21.75 6.61627 17.3837 2.25 12 2.25ZM13.3677 16.8479C13.3677 17.6037 12.755 18.2156 12 18.2156C11.2442 18.2156 10.6323 17.6029 10.6323 16.8479V11.7656C10.6323 11.0098 11.245 10.3979 12 10.3979C12.3775 10.3979 12.7194 10.5502 12.9691 10.7999C13.2162 11.047 13.3686 11.3881 13.3686 11.7656L13.3677 16.8479ZM12 8.52055C11.2442 8.52055 10.6323 7.9078 10.6323 7.15284C10.6323 6.39704 11.245 5.78513 12 5.78513C12.7558 5.78513 13.3677 6.39789 13.3677 7.15284C13.3677 7.9078 12.7558 8.52055 12 8.52055Z" fill="white"/>
</svg>
